HIERARCHY
ROOT Hips
{
    OFFSET 0.000000 0.000000 0.000000
    CHANNELS 6 Xposition Yposition Zposition Zrotation Xrotation Yrotation
        JOINT Chest
        {
            OFFSET -0.000000 30.833075 -0.000000
            CHANNELS 3 Zrotation Xrotation Yrotation
            JOINT Neck
            {
                OFFSET -0.000000 23.115997 0.000000
                CHANNELS 3 Zrotation Xrotation Yrotation
                JOINT Head
                {
                    OFFSET -0.000000 10.266666 0.000000
                    CHANNELS 3 Zrotation Xrotation Yrotation
                    End Site
                    {
                        OFFSET -0.000000 15.866669 0.000000
                    }
                }
            }
            JOINT LeftCollar
            {
                OFFSET -0.000000 23.115997 0.000000
                CHANNELS 3 Zrotation Xrotation Yrotation
                JOINT LeftShoulder
                {
                    OFFSET 18.666668 -0.000000 0.000000
                    CHANNELS 3 Zrotation Xrotation Yrotation
                    JOINT LeftElbow
                    {
                        OFFSET 25.298601 0.000000 0.000000
                        CHANNELS 3 Zrotation Xrotation Yrotation
                        JOINT LeftWrist
                        {
                            OFFSET 27.056377 0.000000 0.000000
                            CHANNELS 3 Zrotation Xrotation Yrotation
                            End Site
                            {
                                OFFSET 0.000000 -14.000002 0.000000
                            }
                        }
                    }
                }
            }
            JOINT RightCollar
            {
                OFFSET -0.000000 23.115997 0.000000
                CHANNELS 3 Zrotation Xrotation Yrotation
                JOINT RightShoulder
                {
                    OFFSET -18.666668 0.000000 0.000000
                    CHANNELS 3 Zrotation Xrotation Yrotation
                    JOINT RightElbow
                    {
                        OFFSET -25.298601 0.000000 0.000000
                        CHANNELS 3 Zrotation Xrotation Yrotation
                        JOINT RightWrist
                        {
                            OFFSET -27.056377 0.000000 0.000000
                            CHANNELS 3 Zrotation Xrotation Yrotation
                            End Site
                            {
                                OFFSET -0.000000 -14.000002 0.000000
                            }
                        }
                    }
                }
            }
        }
    JOINT LeftHip
    {
        OFFSET 11.200000 0.000000 0.000000
        CHANNELS 3 Zrotation Xrotation Yrotation
        JOINT LeftKnee
        {
            OFFSET -0.000000 -43.871983 0.000000
            CHANNELS 3 Zrotation Xrotation Yrotation
            JOINT LeftAnkle
            {
                OFFSET -0.000000 -44.488350 0.000000
                CHANNELS 3 Zrotation Xrotation Yrotation
                End Site
                {
                    OFFSET -0.000000 -4.666667 15.866669
                }
            }
        }
    }
    JOINT RightHip
    {
        OFFSET -11.200000 0.000000 0.000000
        CHANNELS 3 Zrotation Xrotation Yrotation
        JOINT RightKnee
        {
            OFFSET -0.000000 -43.871983 0.000000
            CHANNELS 3 Zrotation Xrotation Yrotation
            JOINT RightAnkle
            {
                OFFSET -0.000000 -44.488350 0.000000
                CHANNELS 3 Zrotation Xrotation Yrotation
                End Site
                {
                    OFFSET -0.000000 -4.666667 15.866669
                }
            }
        }
    }
}
MOTION
Frames:    7
Frame Time:    0.010000
36.295673    113.151810    54.697289    34.128410    4.129646    -91.827568    9.002784    37.177383    -2.952669    -1.067863    7.116574    -7.227692    9.479526    -32.756718    -4.509651    -16.119495    0.053960    -0.325045    -16.582922    22.158178    -62.223820    65.931931    -25.768698    -39.013599    115.097107    18.963652    39.661388    17.008875    1.326590    8.822002    25.370882    5.962081    33.494377    -34.666115    -27.803524    76.146240    -121.739334    28.973827    -50.535805    13.909555    -54.584843    24.534292    20.528992    49.868660    -6.109461    6.705693    10.490529    -17.804857    19.017145    -81.012169    15.710387    -5.144630    68.386307    11.866082    -14.124351    -17.888933    -26.755281    
36.262726    113.065323    54.617031    34.239052    3.848067    -91.536842    8.612904    36.981827    -2.672272    -1.268799    7.263946    -7.321577    9.884923    -32.666370    -4.504039    -16.385477    0.026904    -0.071777    -15.737216    22.122932    -62.705578    65.611465    -25.659454    -39.028400    115.109032    19.018702    39.760822    17.059645    1.314465    8.861028    25.454874    6.261365    33.125687    -35.160595    -28.077658    75.909737    -121.704651    29.207800    -50.842594    14.074008    -56.177418    25.178019    23.475929    52.905743    -7.993395    6.277617    9.570975    -18.767607    15.040792    -78.885475    11.831431    -5.176967    64.233582    11.454246    -14.221678    -17.092693    -26.066118    
36.238964    112.946655    54.564674    34.531490    3.457607    -91.218468    8.178398    36.612446    -2.274387    -1.248344    7.426983    -7.464380    10.069182    -32.795357    -4.581707    -16.381695    -0.007364    -0.061142    -15.422750    22.315218    -63.085186    65.331886    -25.619705    -39.218166    115.291649    19.141235    39.260170    17.079817    1.282894    8.581011    25.470673    6.639795    33.044983    -35.715569    -28.352530    75.464119    -121.493309    29.173246    -51.198967    14.137362    -58.069206    26.234554    27.729534    55.785347    -11.818874    4.927437    8.305644    -18.959858    12.043355    -77.046684    9.059403    -5.187557    60.426201    11.391254    -14.052937    -15.980964    -25.629887    
36.170071    112.775131    54.499023    34.674805    3.115072    -90.940887    7.872266    36.579601    -1.662334    -1.153867    7.336553    -7.641685    10.044441    -32.843323    -4.755610    -16.372761    0.026882    -0.161436    -15.395152    22.155697    -63.460686    64.903641    -25.553545    -39.510036    115.263069    19.007700    39.326981    16.818491    1.199674    8.187856    25.671196    6.768540    33.144165    -36.149681    -28.482635    75.142075    -121.632904    29.417200    -51.707504    14.431909    -59.855751    27.497097    32.559475    58.545250    -18.075447    4.238285    7.350860    -17.479521    9.455575    -74.845192    6.990304    -4.458255    56.619335    10.020516    -12.897531    -15.317739    -24.491682    
36.025509    112.513969    54.437119    34.337418    2.800093    -90.636627    7.571989    36.699783    -1.431899    -0.822430    7.876043    -7.809235    9.935316    -33.242935    -4.899392    -16.570803    -0.006884    -0.126324    -14.406569    22.483995    -63.994675    64.920685    -25.514999    -39.149944    115.398277    18.860842    39.366802    16.723783    1.220737    8.099466    26.262327    6.399620    32.594479    -35.987946    -28.208923    75.570450    -121.782570    29.709484    -52.252968    14.695845    -61.061909    27.938831    37.083321    61.500996    -23.497513    3.258976    5.383446    -16.261398    7.414643    -72.141373    5.084295    -4.494938    53.026596    10.440230    -13.148136    -13.975286    -24.272284    
36.014050    112.376236    54.481907    34.711426    2.188720    -90.077545    6.988366    36.129910    -1.393502    -0.213425    8.109092    -8.000382    9.505630    -33.372608    -5.165607    -16.580839    0.032717    -0.286929    -14.196254    22.511267    -64.088242    64.444099    -25.385132    -39.558136    115.833626    19.211857    39.154091    16.707558    1.178499    7.924235    26.648489    6.206991    32.228481    -35.852505    -28.164539    75.775482    -121.848228    29.523375    -52.417397    13.618716    -63.215755    27.481346    42.762127    63.657803    -27.234024    2.758751    4.090179    -18.312881    4.126345    -70.151680    2.948433    -3.060001    49.496189    8.665734    -13.168910    -13.056548    -23.654787    
35.895123    112.119080    54.495766    34.582142    1.622658    -89.567406    6.389058    36.061199    -1.277022    -0.078113    8.426429    -8.151921    9.665072    -33.536884    -5.246080    -16.606903    0.067099    -0.232711    -13.691272    22.607471    -64.487900    64.243217    -25.380283    -39.607182    115.916908    19.426580    39.368191    16.591425    1.127933    7.747501    27.147501    6.147044    32.039394    -35.658363    -28.057426    75.939728    -121.968445    29.450392    -52.466667    12.651265    -64.802979    26.678080    48.632622    65.965820    -33.032898    1.875873    2.482467    -17.761528    1.828696    -67.550858    1.502612    -2.378689    46.095985    9.003799    -13.811160    -11.579223    -24.098642    
